<svg xmlns="http://www.w3.org/2000/svg" fill="none" viewBox="0 0 140 15" height="15" width="140">
<path fill="#25282A" d="M119.987 0.0521767C120.826 -0.0370248 121.966 0.0152957 122.825 0.0147953L131.728 0.0143667C132.44 0.0145097 133.187 -0.00621834 133.9 0.0453156C137.063 0.312348 139.65 2.86253 139.917 5.98015C140.178 9.02822 139.958 11.8035 137.248 13.7346C136.132 14.5299 135.28 14.8061 133.895 14.9168C133.855 14.9237 133.815 14.9294 133.774 14.934C133.164 15.0023 132.025 14.9797 131.397 14.9786L127.44 14.9691L122.735 14.9783C120.516 14.9832 118.35 15.123 116.496 13.6756C115.107 12.5723 114.21 10.976 113.998 9.22843C113.479 4.79844 114.959 0.620479 119.987 0.0521767ZM132.454 12.161C135.72 12.1393 137.132 10.5921 137.14 7.47349C137.147 5.38469 136.295 3.59844 134.057 2.92414C132.806 2.66625 130.8 2.77797 129.43 2.77754L121.676 2.77718C120.116 2.80084 119.127 2.90255 117.929 4.06382C116.273 5.66894 116.317 9.48467 117.977 11.0553C119.546 12.5393 122.204 12.146 124.246 12.1696C126.971 12.2012 129.722 12.135 132.454 12.161Z"></path>
<path fill="#25282A" d="M85.6922 0.0468872C86.9434 -0.00779162 88.5793 0.0370948 89.8529 0.0363801L102.794 0.0332347C104.368 0.0336635 106.423 -0.17819 107.705 0.876289C109.756 2.56454 109.937 5.4706 108.362 7.54775C109.31 9.04059 109.643 10.0579 109.256 11.8799C109.036 12.8033 108.188 13.9663 107.347 14.4411C106.062 15.1663 103.955 14.978 102.498 14.9756L97.0412 14.9675L91.1019 14.9786C90.0963 14.9801 88.1323 15.0496 87.2259 14.844C83.7608 13.629 84.528 10.1207 84.5193 7.28379C84.5164 6.41207 85.2517 6.1672 85.9784 6.14969C87.3187 6.11738 88.7655 6.14168 90.1021 6.13082L101 6.12153C102.175 6.1216 104.839 6.19557 105.855 5.97057C106.361 5.54793 106.62 5.24338 106.616 4.5793C106.604 2.82414 105.372 2.80191 103.96 2.81035C102.962 2.81628 101.952 2.80906 100.968 2.80949L90.8628 2.81642C89.1878 2.81707 87.4752 2.83229 85.7987 2.8037C85.5995 2.79441 84.9909 2.71628 84.8439 2.58477C84.3469 2.14069 84.436 0.916673 84.7866 0.411984C84.9866 0.125081 85.3894 0.0901299 85.6922 0.0468872ZM106.14 11.7175C106.998 10.6614 106.76 9.25823 105.226 9.08161C103.53 8.88642 101.785 8.96039 100.074 8.96068L91.1186 8.96361C90.3014 8.96404 87.9019 9.02158 87.2361 8.93287C87.1977 12.5036 87.2151 12.1886 90.8041 12.1884L94.625 12.1879C98.1489 12.1872 101.966 12.2585 105.469 12.1691C105.654 12.0575 106.006 11.8628 106.14 11.7175Z"></path>
<path fill="#25282A" d="M56.1752 0.0503882C57.614 0.00114148 59.2701 0.0380937 60.7218 0.0376649L73.692 0.0349492C75.4945 0.0343059 77.113 -0.190556 78.5467 1.11066C80.2536 2.65903 80.3818 5.8442 78.8648 7.55554C77.6324 8.94581 76.274 8.86133 74.6135 8.94631C75.8118 9.59045 79.9602 12.3508 79.9921 13.7224C80.0007 14.0602 79.8703 14.3871 79.6305 14.6284C78.4982 15.7568 76.0821 13.3005 75.0352 12.5476C74.4187 12.1092 73.7869 11.692 73.1414 11.2971C69.0561 8.76276 66.3817 8.96275 61.8178 8.95096L60.0715 8.93688C59.5692 8.93337 58.4721 8.8887 58.1702 9.29969C57.1724 10.7022 58.4734 13.2406 57.449 14.6084C57.3832 14.6962 57.1118 14.8395 57.0003 14.8682C54.5448 15.5006 55.0393 13.0603 54.9848 11.7697C54.8515 8.61495 55.4214 6.15983 59.1759 6.14168C60.5651 6.13489 62.1536 6.11731 63.5843 6.11709L72.5379 6.11116C73.3877 6.11037 74.2745 6.13253 75.1221 6.13896C76.177 6.14697 76.4008 5.90145 77.1209 5.24145C77.3231 3.91457 77.2296 3.76026 76.2001 2.91463C75.0736 2.65489 72.7951 2.81085 71.5591 2.8112C69.8733 2.81163 56.0378 2.95044 55.6565 2.72665C55.3254 2.53223 55.1274 2.05742 55.0338 1.70541C54.947 1.37883 54.9886 1.05362 55.1642 0.761713C55.4014 0.367454 55.7348 0.160103 56.1752 0.0503882Z"></path>
<path fill="#25282A" d="M38.0613 0.0501781C40.5341 -0.158674 41.5138 1.36411 42.8386 3.00605C44.2317 4.73261 45.569 6.49235 46.9535 8.2217L49.2922 11.1849C49.7688 11.7861 50.9621 13.0456 50.9381 13.824C50.9295 14.1034 50.5762 14.5807 50.3406 14.7335C48.8154 15.7228 47.6327 13.3884 46.8405 12.4502C46.4515 11.9855 46.0563 11.4961 45.6976 11.0082C43.8549 10.8993 40.9283 10.9948 39.0027 10.9957C36.4225 10.9934 33.6739 10.9467 31.1074 11.0251C30.4207 11.6604 29.9034 12.5321 29.3103 13.2264C28.6173 14.0073 28.3985 14.7674 27.2814 14.9758C26.2332 15.1713 25.4648 13.9505 25.981 13.1634C26.9174 11.7356 28.1363 10.282 29.2163 8.91858C30.9831 6.68804 32.7276 4.40826 34.4882 2.16943C35.5814 0.787878 36.296 0.257958 38.0613 0.0501781ZM38.6527 8.50181C39.7698 8.50403 42.7835 8.57529 43.7552 8.47794C42.9504 7.34569 41.7989 6.18857 40.9694 5.01073C40.3688 4.15781 39.277 2.77154 38.1403 2.82157C36.6622 3.33734 34.5624 6.85873 33.3862 8.06195C33.3132 8.13664 33.0922 8.42905 33.027 8.52111C34.6518 8.43319 36.9775 8.49809 38.6527 8.50181Z"></path>
<path fill="#25282A" d="M0.968984 0.109932C1.87349 0.0139406 2.45016 0.741347 3.10707 1.2925C4.95927 2.84659 6.60246 4.66786 8.94737 5.52106C10.1283 5.95078 11.5429 6.13354 12.8004 6.16763C14.3675 6.17642 16.0676 5.85564 17.5032 5.22094C19.3612 4.39947 20.7664 3.00519 22.2918 1.71091C22.791 1.27391 23.253 0.814324 23.781 0.409057C24.5552 -0.185191 25.9296 0.0222323 25.8435 1.20894C25.7868 1.99167 25.5627 2.19716 25.0069 2.69277C23.8334 3.55706 23.2608 4.17832 22.23 5.11215C20.8006 6.407 18.3778 7.81936 16.4951 8.32991C13.1383 9.25073 9.54826 8.81659 6.51639 7.12305C5.95717 6.80855 5.38853 6.47598 4.87052 6.09816C3.87763 5.37382 0.321939 2.4549 0.0444857 1.41865C-0.0263102 1.15419 -0.02192 0.863714 0.126105 0.625486C0.330828 0.295983 0.60597 0.195489 0.968984 0.109932Z"></path>
<path fill="#25282A" d="M11.5781 10.0538C12.3212 10.0219 14.0299 9.88035 14.6967 10.2075C14.8328 10.2743 15.0254 10.6757 15.0505 10.8791C15.1715 11.8622 15.309 13.7538 14.8614 14.6308C14.7501 14.8491 14.4861 14.9003 14.2787 14.9468C13.4961 15.0015 11.7033 15.0847 11.0532 14.7788C10.6009 14.1555 10.6445 11.2386 10.944 10.4414C11.0336 10.2027 11.3473 10.1164 11.5781 10.0538Z"></path>
</svg>
